<?xml version="1.0" encoding="UTF-8" standalone="no"?>
<svg
   viewBox="0 0 512 512"
   version="1.1"
   id="svg1"
   sodipodi:docname="icon.svg"
   inkscape:version="1.3.2 (091e20ef0f, 2023-11-25, custom)"
   width="512"
   height="512"
   xmlns:inkscape="http://www.inkscape.org/namespaces/inkscape"
   xmlns:sodipodi="http://sodipodi.sourceforge.net/DTD/sodipodi-0.dtd"
   xmlns="http://www.w3.org/2000/svg"
   xmlns:svg="http://www.w3.org/2000/svg">
  <defs
     id="defs1" />
  <sodipodi:namedview
     id="namedview1"
     pagecolor="#ffffff"
     bordercolor="#000000"
     borderopacity="0.25"
     inkscape:showpageshadow="2"
     inkscape:pageopacity="0.0"
     inkscape:pagecheckerboard="0"
     inkscape:deskcolor="#d1d1d1"
     inkscape:zoom="0.55518931"
     inkscape:cx="443.9927"
     inkscape:cy="36.023748"
     inkscape:window-width="1920"
     inkscape:window-height="1008"
     inkscape:window-x="1920"
     inkscape:window-y="0"
     inkscape:window-maximized="1"
     inkscape:current-layer="svg1" />
  <!--!Font Awesome Free 6.5.2 by @fontawesome - https://fontawesome.com License - https://fontawesome.com/license/free Copyright 2024 Fonticons, Inc.-->
  <path
     d="M 243.02137,5.9 94.421374,169.4 c -3.9,4.2 -6,9.8 -6,15.5 0,12.8 10.3,23.1 23.099996,23.1 h 24.9 l -73.399996,73.4 c -4.2,4.2 -6.6,10 -6.6,16 0,12.5 10.1,22.6 22.6,22.6 h 33.399996 l -74.599996,89.5 c -3.5,4.2 -5.4,9.5 -5.4,15 0,13 10.5,23.5 23.5,23.5 H 224.42137 v 32 c 0,17.7 14.3,32 32,32 17.7,0 32,-14.3 32,-32 v -32 h 168.5 c 13,0 23.5,-10.5 23.5,-23.5 0,-5.5 -1.9,-10.8 -5.4,-15 l -74.6,-89.5 h 33.4 c 12.5,0 22.6,-10.1 22.6,-22.6 0,-6 -2.4,-11.8 -6.6,-16 l -73.4,-73.4 h 24.9 c 12.7,0 23.1,-10.3 23.1,-23.1 0,-5.7 -2.1,-11.3 -6,-15.5 l -148.6,-163.5 c -3.4,-3.8 -8.3,-5.9 -13.4,-5.9 -5.1,0 -10,2.1 -13.4,5.9 z"
     id="path1"
     style="fill:#76c684;fill-opacity:1;stroke:none;stroke-opacity:1" />
</svg>
