<?xml version="1.0" encoding="UTF-8" standalone="no"?>
<svg
   viewBox="0 0 256 256"
   version="1.1"
   id="svg1"
   sodipodi:docname="icon.svg"
   inkscape:version="1.3.2 (091e20ef0f, 2023-11-25, custom)"
   width="256"
   height="256"
   xmlns:inkscape="http://www.inkscape.org/namespaces/inkscape"
   xmlns:sodipodi="http://sodipodi.sourceforge.net/DTD/sodipodi-0.dtd"
   xmlns="http://www.w3.org/2000/svg"
   xmlns:svg="http://www.w3.org/2000/svg">
  <defs
     id="defs1" />
  <sodipodi:namedview
     id="namedview1"
     pagecolor="#ffffff"
     bordercolor="#000000"
     borderopacity="0.25"
     inkscape:showpageshadow="2"
     inkscape:pageopacity="0.0"
     inkscape:pagecheckerboard="0"
     inkscape:deskcolor="#d1d1d1"
     inkscape:zoom="0.78515625"
     inkscape:cx="349.61194"
     inkscape:cy="1.2736318"
     inkscape:window-width="1920"
     inkscape:window-height="1008"
     inkscape:window-x="1920"
     inkscape:window-y="0"
     inkscape:window-maximized="1"
     inkscape:current-layer="svg1" />
  <!--!Font Awesome Free 6.5.2 by @fontawesome - https://fontawesome.com License - https://fontawesome.com/license/free Copyright 2024 Fonticons, Inc.-->
  <path
     id="path1"
     style="fill:#0da3e4;stroke-width:0.42766;fill-opacity:1"
     d="M 128 0 A 128 128 0 0 0 3.2714844 100.73633 L 59.527344 100.73633 A 73.870644 73.870644 0 0 1 128 54.128906 A 73.870644 73.870644 0 0 1 196.63672 100.73633 L 253.02539 100.73633 A 128 128 0 0 0 128 0 z M 3.2714844 155.26367 A 128 128 0 0 0 128 256 A 128 128 0 0 0 252.72852 155.26367 L 196.47266 155.26367 A 73.870644 73.870644 0 0 1 128 201.87109 A 73.870644 73.870644 0 0 1 59.527344 155.26367 L 3.2714844 155.26367 z " />
  <circle
     style="fill:#0da3e4;fill-opacity:1;stroke-width:0.487341"
     id="path2"
     cx="128"
     cy="128"
     r="45" />
</svg>
